<?xml version="1.0" standalone="no"?>
<!DOCTYPE svg PUBLIC "-//W3C//DTD SVG 20010904//EN"
 "http://www.w3.org/TR/2001/REC-SVG-20010904/DTD/svg10.dtd">
<svg version="1.0" xmlns="http://www.w3.org/2000/svg"
 width="16.000000pt" height="16.000000pt" viewBox="0 0 16.000000 16.000000"
 preserveAspectRatio="xMidYMid meet">
<metadata>
Created by potrace 1.11, written by Peter Selinger 2001-2013
</metadata>
<g transform="translate(0.000000,16.000000) scale(0.021053,-0.021053)"
fill="#000000" stroke="none">
<path d="M474 748 c-18 -6 -63 -42 -100 -80 l-69 -70 45 6 c25 3 70 10 100 15
30 5 58 6 62 3 3 -4 8 -49 11 -100 4 -98 9 -115 25 -85 6 10 33 47 61 82 46
57 51 68 51 113 0 60 -23 114 -53 122 -32 8 -97 5 -133 -6z"/>
<path d="M399 586 c-2 -2 -22 -6 -44 -9 -72 -10 -89 -23 -153 -112 -66 -93
-67 -100 -42 -194 4 -15 -4 -61 -21 -115 -39 -134 -43 -156 -27 -156 8 0 22
23 33 53 45 129 176 354 280 482 l45 55 -33 0 c-19 0 -36 -2 -38 -4z"/>
<path d="M433 502 c-28 -37 -68 -94 -91 -127 -42 -62 -125 -215 -120 -220 2
-2 45 11 97 29 l93 32 49 84 c34 58 47 92 44 110 -2 14 -5 54 -7 88 -1 35 -5
65 -8 67 -4 2 -29 -26 -57 -63z"/>
<path d="M265 140 c-50 -20 -75 -42 -75 -67 0 -17 123 43 139 68 15 25 2 24
-64 -1z"/>
</g>
</svg>
